<mxfile host="app.diagrams.net" modified="2024-01-26T02:14:55.532Z" agent="Mozilla/5.0 (Windows NT 10.0; Win64; x64) AppleWebKit/537.36 (KHTML, like Gecko) Chrome/121.0.0.0 Safari/537.36" version="23.0.1" etag="XbF4R4IUxhIA3jWBqtle" type="github">
  <diagram name="페이지-1" id="P6vss7gp8y9n3BdpgCYl">
    <mxGraphModel>
      <root>
        <mxCell id="0" />
        <mxCell id="1" parent="0" />
      </root>
    </mxGraphModel>
  </diagram>
</mxfile>
